<svg width="55" height="55" viewBox="0 0 55 55" fill="none" xmlns="http://www.w3.org/2000/svg">
<path d="M55 32.2891V26.3064C55 24.0942 53.1688 22.2944 50.918 22.2944H44.6338V18.0009C44.6338 13.1301 40.6019 9.16748 35.6461 9.16748H19.3539C14.3981 9.16748 10.3662 13.1301 10.3662 18.0009V22.2944H4.08203C1.83122 22.2944 0 24.0942 0 26.3064V32.2891H4.2611V34.9951C4.2611 38.7851 2.88428 42.4628 0.384141 45.3508L0 45.7944V48.1258H55V45.7944L54.6159 45.3508C52.1158 42.4628 50.7389 38.7851 50.7389 34.9951V32.2891H55ZM13.5889 18.001C13.5889 14.8767 16.1751 12.3349 19.3539 12.3349H35.6461C38.825 12.3349 41.4111 14.8767 41.4111 18.001V22.2945H37.9736V18.001C37.9736 16.7396 36.9295 15.7134 35.6461 15.7134H19.3539C18.0705 15.7134 17.0264 16.7396 17.0264 18.001V22.2945H13.5889V18.001ZM34.751 22.2944H20.249V18.8807H34.751V22.2944ZM3.22266 29.1218V26.3064C3.22266 25.8406 3.60819 25.4617 4.08203 25.4617H50.918C51.3918 25.4617 51.7773 25.8406 51.7773 26.3064V29.1218H3.22266ZM16.6665 32.2891V44.9585H13.7411V32.2891H16.6665ZM19.8892 32.2891H22.8146V44.9585H19.8892V32.2891ZM26.0373 32.2891H28.9627V44.9585H26.0373V32.2891ZM32.1853 32.2891H35.1107V44.9585H32.1853V32.2891ZM38.3335 32.2891H41.2589V44.9585H38.3335V32.2891ZM7.48376 34.9951V32.2891H10.5184V44.9585H4.63697C6.48742 41.9727 7.48376 38.5248 7.48376 34.9951ZM50.363 44.9585H44.4816V32.2891H47.5162V34.9951C47.5162 38.5248 48.5126 41.9727 50.363 44.9585Z" fill="#00386B"/>
</svg>
