<svg width="55" height="55" viewBox="0 0 55 55" fill="none" xmlns="http://www.w3.org/2000/svg">
<path d="M38.7793 44.7746V38.7793H34.6127L31.3901 35.5566H26.8326L22.666 39.7232V44.2807L27.0648 48.6795L38.7793 44.7746ZM25.8887 41.058L28.1674 38.7793H30.0552L33.2779 42.002H35.5566V42.4518L27.9352 44.9924L25.8887 42.9459V41.058Z" fill="#00386B"/>
<path d="M27.5 55C42.6422 55 55 42.6412 55 27.5C55 12.3578 42.6412 0 27.5 0C12.3579 0 0 12.3588 0 27.5C0 42.6421 12.3589 55 27.5 55ZM51.2933 22.666C51.6103 24.2287 51.7773 25.8452 51.7773 27.5C51.7773 29.1548 51.6103 30.7713 51.2933 32.334H47.2163L42.002 29.7267V28.1674L44.564 25.6055L50.5408 22.666H51.2933ZM3.22266 27.5C3.22266 16.1536 11.0475 6.6014 21.5838 3.95302L22.8902 9.27201L29.1113 12.3826V16.2207H32.9494L35.2074 20.7365L33.6271 22.3167L26.7794 18.8928L23.2814 25.8887H16.2207V31.3901L18.7759 33.9453L17.5138 35.2074L11.0685 31.9848L7.49665 35.5566H4.59862C3.70863 33.0343 3.22266 30.323 3.22266 27.5ZM8.83147 38.7793L11.7049 35.9059L18.1502 39.1285L23.3334 33.9453L19.4434 30.0552V29.1113H25.2733L28.2207 23.2166L34.2636 26.238L39.1286 21.3729L34.9412 12.998H32.334V10.3908L25.6645 7.05601L24.7611 3.37799C25.6604 3.27658 26.5739 3.22266 27.5 3.22266C38.0635 3.22266 47.0713 10.0052 50.4014 19.4434H49.7912L42.6627 22.9492L38.7793 26.8326V31.7186L46.4556 35.5556L50.4014 35.5566C47.0713 44.9948 38.0635 51.7773 27.5 51.7773C18.1828 51.7773 10.0761 46.5006 6.00746 38.7793H8.83147Z" fill="#00386B"/>
</svg>
