<svg width="14" height="15" viewBox="0 0 14 15" fill="none" xmlns="http://www.w3.org/2000/svg">
<path d="M12.4315 12.0044C12.4063 12.0356 12.3801 12.0668 12.3527 12.098C11.7081 12.8547 10.9052 13.4656 9.99879 13.8891C9.09239 14.3126 8.10383 14.5387 7.10054 14.552C7.06664 14.5531 7.03382 14.5542 6.99992 14.5542C6.96601 14.5542 6.9332 14.5531 6.89929 14.552C5.89223 14.5386 4.90007 14.3108 3.99098 13.8842C3.08189 13.4576 2.27743 12.8424 1.63289 12.0808C1.61452 12.0614 1.59735 12.0409 1.58148 12.0195C1.58066 12.0178 1.57955 12.0164 1.5782 12.0152C0.557621 10.7881 0 9.25138 0 7.66575C0 6.08013 0.557621 4.54336 1.5782 3.31634C1.57955 3.31512 1.58066 3.31366 1.58148 3.31204C1.59735 3.2906 1.61452 3.27011 1.63289 3.25069L1.63398 3.24961C2.27845 2.48831 3.08277 1.87334 3.99166 1.44694C4.90056 1.02054 5.89249 0.792834 6.89929 0.779459C6.96645 0.777306 7.03339 0.777306 7.10054 0.779459C8.10383 0.792775 9.09239 1.0189 9.99879 1.4424C10.9052 1.8659 11.7081 2.47682 12.3527 3.23347C12.3801 3.26468 12.4063 3.2959 12.4315 3.32711C13.446 4.55268 13.9999 6.08504 13.9999 7.66575C13.9999 9.24647 13.446 10.7788 12.4315 12.0044V12.0044ZM10.8816 7.85411C10.8708 8.8748 10.7211 9.88946 10.4365 10.871C11.0596 11.0645 11.6547 11.3362 12.2073 11.6793C13.0815 10.5861 13.5747 9.24478 13.6138 7.85411H10.8816ZM7.19132 14.1678C8.36054 14.0494 9.37773 12.8611 9.96507 11.1218C9.06095 10.8776 8.12881 10.7481 7.19132 10.7365V14.1678ZM6.80851 10.7365C5.87102 10.7481 4.93889 10.8776 4.03476 11.1218C4.6221 12.8611 5.63929 14.0494 6.80851 14.1678V10.7365ZM6.80851 10.3598V7.85411H3.50101C3.51145 8.83747 3.65302 9.81523 3.9221 10.7623C4.86275 10.5071 5.83283 10.3718 6.80851 10.3598V10.3598ZM6.80851 7.4774V4.97172C5.83283 4.95974 4.86275 4.82445 3.9221 4.56918C3.65302 5.51628 3.51145 6.49404 3.50101 7.4774H6.80851ZM6.80851 4.59501V1.1637C5.63929 1.2821 4.6221 2.47036 4.03476 4.20969C4.93889 4.45388 5.87102 4.58337 6.80851 4.59501V4.59501ZM7.19132 4.59501C8.12881 4.58337 9.06095 4.45388 9.96507 4.20969C9.37773 2.47036 8.36054 1.2821 7.19132 1.1637V4.59501ZM7.19132 4.97172V7.4774H10.4988C10.4884 6.49368 10.3468 5.51557 10.0777 4.5681C9.13734 4.82471 8.16713 4.96038 7.19132 4.97172V4.97172ZM7.19132 7.85411V10.3598C8.16713 10.3711 9.13734 10.5068 10.0777 10.7634C10.3468 9.81594 10.4884 8.83782 10.4988 7.85411H7.19132ZM11.9601 11.9721C11.4476 11.6579 10.8972 11.4081 10.3216 11.2284C9.90164 12.4575 9.27054 13.4348 8.51914 14.0042C9.85194 13.693 11.054 12.9831 11.9601 11.9721V11.9721ZM5.4807 14.0042C4.72929 13.4348 4.0982 12.4575 3.6782 11.2284C3.10307 11.4086 2.55276 11.6581 2.03976 11.971C2.94524 12.9829 4.14752 13.6933 5.4807 14.0042V14.0042ZM1.79257 11.6804C2.34503 11.3366 2.94018 11.0642 3.56335 10.87C3.27868 9.88877 3.12896 8.87445 3.1182 7.85411H0.386011C0.425089 9.2451 0.91828 10.5867 1.79257 11.6804V11.6804ZM3.1182 7.4774C3.12896 6.45705 3.27868 5.44274 3.56335 4.46155V4.46047C2.94005 4.26706 2.34484 3.995 1.79257 3.65108C0.91828 4.74476 0.425089 6.0864 0.386011 7.4774H3.1182ZM2.03976 3.36047C2.55276 3.67345 3.10307 3.92289 3.6782 4.10313C4.0982 2.87398 4.72929 1.89668 5.4807 1.32731C4.14752 1.63822 2.94525 2.34862 2.03976 3.36047V3.36047ZM8.51914 1.32731C9.27054 1.89668 9.90164 2.87398 10.3216 4.10313C10.8972 3.92345 11.4476 3.6736 11.9601 3.3594C11.054 2.34841 9.85194 1.6385 8.51914 1.32731V1.32731ZM12.2073 3.65216C11.6547 3.99529 11.0596 4.26696 10.4365 4.46047C10.7211 5.44205 10.8708 6.45671 10.8816 7.4774H13.6138C13.5747 6.08673 13.0815 4.74543 12.2073 3.65216V3.65216Z" fill="white"/>
</svg>
