<svg width="16" height="17" viewBox="0 0 16 17" fill="none" xmlns="http://www.w3.org/2000/svg">
<g clip-path="url(#clip0)">
<rect y="13.7122" width="24" height="24" fill="white"/>
</g>
<path d="M14.2074 13.7842C14.1787 13.8201 14.1487 13.8559 14.1174 13.8918C13.3807 14.7606 12.4631 15.4621 11.4272 15.9484C10.3913 16.4347 9.26152 16.6944 8.11491 16.7097C8.07616 16.7109 8.03866 16.7122 7.99991 16.7122C7.96116 16.7122 7.92366 16.7109 7.88491 16.7097C6.73398 16.6942 5.60008 16.4326 4.56112 15.9428C3.52216 15.4529 2.60278 14.7465 1.86616 13.872C1.84517 13.8497 1.82555 13.8262 1.80741 13.8015C1.80647 13.7997 1.8052 13.798 1.80366 13.7966C0.637282 12.3876 0 10.623 0 8.8022C0 6.98144 0.637282 5.21678 1.80366 3.80781C1.8052 3.8064 1.80647 3.80473 1.80741 3.80287C1.82555 3.77824 1.84517 3.75472 1.86616 3.73242L1.86741 3.73118C2.60394 2.85699 3.52316 2.15082 4.5619 1.66119C5.60064 1.17156 6.73427 0.910081 7.88491 0.894721C7.96166 0.89225 8.03816 0.89225 8.11491 0.894721C9.26152 0.910012 10.3913 1.16967 11.4272 1.65597C12.4631 2.14227 13.3807 2.84379 14.1174 3.71264C14.1487 3.74848 14.1787 3.78433 14.2074 3.82017C15.3668 5.22748 15.9999 6.98708 15.9999 8.8022C15.9999 10.6173 15.3668 12.3769 14.2074 13.7842ZM12.4362 9.01849C12.4238 10.1905 12.2527 11.3557 11.9274 12.4828C12.6395 12.705 13.3197 13.017 13.9512 13.411C14.9503 12.1556 15.514 10.6154 15.5587 9.01849H12.4362ZM8.21866 16.2685C9.55491 16.1325 10.7174 14.768 11.3887 12.7708C10.3554 12.4904 9.29007 12.3417 8.21866 12.3283V16.2685ZM7.78116 12.3283C6.70974 12.3417 5.64444 12.4904 4.61116 12.7708C5.28241 14.768 6.44491 16.1325 7.78116 16.2685V12.3283ZM7.78116 11.8957V9.01849H4.00116C4.01309 10.1477 4.17488 11.2704 4.48241 12.358C5.55743 12.0649 6.66609 11.9095 7.78116 11.8957ZM7.78116 8.58592V5.70867C6.66609 5.6949 5.55743 5.53955 4.48241 5.24643C4.17488 6.33398 4.01309 7.45673 4.00116 8.58592H7.78116ZM7.78116 5.2761V1.33595C6.44491 1.4719 5.28241 2.83637 4.61116 4.83363C5.64444 5.11404 6.70974 5.26273 7.78116 5.2761ZM8.21866 5.2761C9.29007 5.26273 10.3554 5.11404 11.3887 4.83363C10.7174 2.83637 9.55491 1.4719 8.21866 1.33595V5.2761ZM8.21866 5.70867V8.58592H11.9987C11.9867 7.45632 11.8249 6.33316 11.5174 5.2452C10.4427 5.53985 9.33387 5.69564 8.21866 5.70867ZM8.21866 9.01849V11.8957C9.33387 11.9088 10.4427 12.0646 11.5174 12.3592C11.8249 11.2712 11.9867 10.1481 11.9987 9.01849H8.21866ZM13.6687 13.7472C13.083 13.3864 12.4539 13.0995 11.7962 12.8931C11.3162 14.3046 10.5949 15.4268 9.73616 16.0806C11.2594 15.7233 12.6332 14.9081 13.6687 13.7472ZM6.26366 16.0806C5.40491 15.4268 4.68366 14.3046 4.20366 12.8931C3.54636 13.1001 2.91744 13.3865 2.33116 13.7459C3.36599 14.9078 4.74002 15.7236 6.26366 16.0806ZM2.04866 13.4122C2.68003 13.0174 3.36021 12.7046 4.07241 12.4816C3.74706 11.3549 3.57595 10.1901 3.56366 9.01849H0.441155C0.485816 10.6158 1.04946 12.1564 2.04866 13.4122ZM3.56366 8.58592C3.57595 7.41426 3.74706 6.24953 4.07241 5.12284V5.1216C3.36006 4.89951 2.67981 4.5871 2.04866 4.19218C1.04946 5.44804 0.485816 6.98865 0.441155 8.58592H3.56366ZM2.33116 3.85848C2.91744 4.21788 3.54636 4.50431 4.20366 4.71128C4.68366 3.29984 5.40491 2.17762 6.26366 1.52381C4.74002 1.88083 3.366 2.69658 2.33116 3.85848ZM9.73616 1.52381C10.5949 2.17762 11.3162 3.29984 11.7962 4.71128C12.4539 4.50495 13.083 4.21804 13.6687 3.85725C12.6332 2.69634 11.2594 1.88115 9.73616 1.52381ZM13.9512 4.19342C13.3197 4.58743 12.6395 4.8994 11.9274 5.1216C12.2527 6.24874 12.4238 7.41387 12.4362 8.58592H15.5587C15.514 6.98902 14.9503 5.44881 13.9512 4.19342Z" fill="#00396B"/>
<defs>
<clipPath id="clip0">
<rect width="16" height="15.8199" fill="white" transform="matrix(1 0 0 -1 0 16.7122)"/>
</clipPath>
</defs>
</svg>
