<svg width="55" height="21" viewBox="0 0 55 21" fill="none" xmlns="http://www.w3.org/2000/svg">
<path d="M49.0918 4.07007H35.8166C35.1514 2.19459 33.3604 0.847412 31.2598 0.847412H23.7402C21.6396 0.847412 19.8486 2.19459 19.1834 4.07007H5.9082C2.65042 4.07007 0 6.72049 0 9.97827V20.1833H55V9.97827C55 6.72049 52.3496 4.07007 49.0918 4.07007ZM23.7402 4.07007H31.2598C32.1483 4.07007 32.8711 4.79291 32.8711 5.6814C32.8711 6.56988 32.1483 7.29273 31.2598 7.29273H23.7402C22.8517 7.29273 22.1289 6.56988 22.1289 5.6814C22.1289 4.79291 22.8517 4.07007 23.7402 4.07007ZM51.7773 16.9607H48.4473V13.8455H45.2246V16.9607H42.002V13.8455H38.7793V16.9607H35.5566V13.8455H32.334V16.9607H29.1113V13.8455H25.8887V16.9607H22.666V13.8455H19.4434V16.9607H16.2207V13.8455H12.998V16.9607H9.77539V13.8455H6.55273V16.9607H3.22266V9.97827C3.22266 8.49746 4.42739 7.29273 5.9082 7.29273H19.1834C19.8486 9.1682 21.6396 10.5154 23.7402 10.5154H31.2598C33.3604 10.5154 35.1514 9.1682 35.8166 7.29273H49.0918C50.5726 7.29273 51.7773 8.49746 51.7773 9.97827V16.9607Z" fill="#00386B"/>
</svg>
