<svg width="16" height="17" viewBox="0 0 16 17" fill="none" xmlns="http://www.w3.org/2000/svg">
<path d="M15.5801 13.231L12.3417 11.0713C11.9307 10.7995 11.3798 10.8889 11.076 11.2769L10.1327 12.4898C10.0114 12.6496 9.79107 12.696 9.61569 12.5986L9.43625 12.4996C8.8414 12.1754 8.10126 11.7718 6.61001 10.28C5.11876 8.78819 4.71429 8.04749 4.39006 7.45374L4.29167 7.27429C4.1929 7.09894 4.23839 6.87763 4.39831 6.75543L5.61038 5.81239C5.99819 5.50852 6.08777 4.95779 5.81622 4.5467L3.65654 1.30824C3.37824 0.889617 2.81988 0.763948 2.38904 1.02294L1.03484 1.83641C0.609337 2.08656 0.297165 2.49169 0.163778 2.9669C-0.323868 4.7437 0.0429834 7.81018 4.56019 12.3279C8.15353 15.921 10.8286 16.8872 12.6673 16.8872C13.0904 16.8891 13.5119 16.834 13.9204 16.7235C14.3957 16.5903 14.8009 16.2781 15.0509 15.8525L15.8652 14.4991C16.1246 14.0682 15.999 13.5095 15.5801 13.231ZM15.4058 14.2255L14.5934 15.5797C14.4139 15.8869 14.1224 16.1128 13.7801 16.21C12.1398 16.6604 9.27414 16.2874 4.93744 11.9507C0.600745 7.61396 0.227769 4.74851 0.678108 3.10798C0.775469 2.76528 1.00162 2.47348 1.3092 2.29369L2.66341 1.48128C2.85035 1.3688 3.09269 1.42332 3.21345 1.60498L4.38662 3.36631L5.37129 4.84315C5.48921 5.02147 5.45046 5.26047 5.28224 5.39242L4.06989 6.33546C3.70094 6.61758 3.59558 7.12803 3.82274 7.53316L3.919 7.70807C4.25976 8.33304 4.68342 9.11052 6.23013 10.657C7.77684 12.2034 8.55406 12.6271 9.17875 12.9678L9.35391 13.0643C9.75901 13.2915 10.2695 13.1861 10.5516 12.8172L11.4947 11.6048C11.6266 11.4367 11.8655 11.398 12.0439 11.5158L15.2821 13.6755C15.4639 13.7961 15.5184 14.0386 15.4058 14.2255Z" fill="white"/>
<path d="M9.06593 3.55594C11.5681 3.55872 13.5958 5.58645 13.5986 8.08861C13.5986 8.23587 13.718 8.35523 13.8652 8.35523C14.0125 8.35523 14.1318 8.23587 14.1318 8.08861C14.1287 5.29206 11.8625 3.02577 9.06593 3.02271C8.91867 3.02271 8.79932 3.14206 8.79932 3.28932C8.79932 3.43658 8.91867 3.55594 9.06593 3.55594Z" fill="white"/>
<path d="M9.06593 5.15567C10.6849 5.15758 11.9969 6.46957 11.9988 8.08858C11.9988 8.23584 12.1182 8.3552 12.2655 8.3552C12.4127 8.3552 12.5321 8.23584 12.5321 8.08858C12.5299 6.17517 10.9793 4.62462 9.06593 4.62244C8.91867 4.62244 8.79932 4.74179 8.79932 4.88905C8.79932 5.03631 8.91867 5.15567 9.06593 5.15567Z" fill="white"/>
<path d="M9.06593 6.7554C9.80182 6.75628 10.3982 7.35263 10.3991 8.08855C10.3991 8.23581 10.5185 8.35516 10.6657 8.35516C10.8129 8.35516 10.9323 8.23581 10.9323 8.08855C10.9311 7.05826 10.0962 6.22332 9.06593 6.22217C8.91867 6.22217 8.79932 6.34153 8.79932 6.48878C8.79932 6.63604 8.91867 6.7554 9.06593 6.7554Z" fill="white"/>
</svg>
