<?xml version="1.0" encoding="utf-8"?>
<!-- Generator: Adobe Illustrator 22.0.1, SVG Export Plug-In . SVG Version: 6.00 Build 0)  -->
<svg version="1.1" id="Слой_1" xmlns="http://www.w3.org/2000/svg" xmlns:xlink="http://www.w3.org/1999/xlink" x="0px" y="0px"
	 viewBox="0 0 267.9 80.1" style="enable-background:new 0 0 267.9 80.1;" xml:space="preserve">
<style type="text/css">
	.st0{fill:url(#SVGID_1_);}
	.st1{fill:url(#SVGID_2_);}
	.st2{fill:#FFFFFF;}
</style>
<g>
	
		<linearGradient id="SVGID_1_" gradientUnits="userSpaceOnUse" x1="133.9509" y1="1.9" x2="133.9509" y2="82" gradientTransform="matrix(1 0 0 -1 0 82)">
		<stop  offset="0.2515" style="stop-color:#00386C"/>
		<stop  offset="0.7975" style="stop-color:#0076C0"/>
	</linearGradient>
	<path class="st0" d="M267.1,44.8l-14.5-34.5l-0.1-0.2c-1.5-2.9-4.7-4.9-7.7-4.9c0,0-55.9-5.2-110.4-5.2S23,5.2,23,5.2
		c-3.1,0-6.3,2-7.7,4.9l-0.1,0.2L0.7,44.8c-0.9,1.9-1,4.2-0.2,6.1c0.8,2,2.5,3.5,4.6,4.1l122.2,24.1c0,0,4.6,1,6.7,1c2.2,0,7-1,7-1
		l121.7-24h0.1c2.1-0.6,3.7-2.1,4.6-4.1C268.1,49,268,46.8,267.1,44.8z"/>
	
		<linearGradient id="SVGID_2_" gradientUnits="userSpaceOnUse" x1="133.8925" y1="7.2" x2="133.8925" y2="76.6179" gradientTransform="matrix(1 0 0 -1 0 82)">
		<stop  offset="0.2025" style="stop-color:#0076C0"/>
		<stop  offset="0.7485" style="stop-color:#00386C"/>
	</linearGradient>
	<path class="st1" d="M133.8,74.8c-1,0-3.9-0.5-5.6-0.9L6.2,49.8H6.1c-0.4-0.2-0.7-0.5-0.8-0.9c-0.2-0.6-0.2-1.2,0.1-1.8L20,12.5
		c0.6-1.1,1.9-2,3-2h0.5c0.5,0,57.4-5.2,110.9-5.2c53.8,0,109.3,5.1,109.9,5.2h0.5l0,0c1,0,2.4,0.9,2.9,2v0.1l14.6,34.5
		c0.3,0.6,0.3,1.2,0.1,1.8c-0.2,0.5-0.6,0.8-0.9,0.9l-0.2,0.1l-121.6,24C138,74.3,134.9,74.8,133.8,74.8L133.8,74.8z M7,48.1
		l121.6,24c2,0.4,4.5,0.8,5.3,0.8c0.7,0,3.4-0.4,5.5-0.9h0.1l121.2-23.9c0-0.1,0-0.1-0.1-0.2l-0.1-0.3l-14.4-34.3
		c-0.3-0.5-1-0.9-1.3-0.9h-0.6c-0.6-0.1-56-5.2-109.7-5.2c-53.4,0-110.2,5.1-110.8,5.2h-0.6c-0.3,0-1,0.4-1.3,0.9L7.2,47.8
		C7,48,7,48.1,7,48.1L7,48.1z"/>
	<g>
		
			<image style="overflow:visible;opacity:0.49;enable-background:new    ;" width="875" height="188" xlink:href="8BFDDD64.png"  transform="matrix(0.2336 0 0 0.2336 32.4003 10.3115)">
		</image>
		<g>
			<g>
				<path class="st2" d="M67.2,35.2c0,7.7-7.5,13.1-17.2,13.1c-9.6,0-17.2-5.4-17.2-13.1C32.8,27.3,40.3,22,50,22
					S67.2,27.3,67.2,35.2z M40.6,35.2c0,4.3,3.5,7.2,9.4,7.2c5.8,0,9.4-2.9,9.4-7.2c0-4.4-3.5-7.3-9.4-7.3
					C44.2,27.9,40.6,30.8,40.6,35.2z"/>
				<path class="st2" d="M71.6,39.4c2.8,2.1,7.9,3.4,11.9,3.4c5.1,0,7.6-1.1,7.6-2.8c0-1.9-2.7-2.5-8-2.7C75,37,70,35.2,70,30.1
					c0-5.2,5.9-8.1,14.2-8.1c5.3,0,10.1,1,14,3l-3.1,4.8c-2.8-1.5-7.1-2.4-11.1-2.4c-4.6,0-6.7,1-6.7,2.6c0,1.5,2.3,2.3,7.9,2.5
					c7.5,0.2,13.9,2,13.9,7.4c0,5.5-6.7,8.5-15.3,8.5c-5.2,0-11.2-1.3-15-3.5L71.6,39.4z"/>
				<path class="st2" d="M102.8,47.4V13.2h7.5v11.6c2.6-1.6,6.3-2.8,10-2.8c9.1,0,15.1,5.6,15.1,13.2c0,7.6-6.2,12.9-15.1,12.9
					c-4.2,0-7.5-0.3-10-1.8v1.1H102.8z M110.3,30.7v9c2.2,1.6,5,2.6,8.1,2.6c6,0,9.2-2.9,9.2-7.1c0-4.2-3.1-7.3-9-7.3
					C115.5,28,112.4,29.2,110.3,30.7z"/>
				<path class="st2" d="M173.3,35.2c0,7.7-7.5,13.1-17.2,13.1c-9.6,0-17.2-5.4-17.2-13.1c0-7.9,7.5-13.2,17.2-13.2
					C165.9,22,173.3,27.3,173.3,35.2z M146.8,35.2c0,4.3,3.5,7.2,9.4,7.2c5.8,0,9.4-2.9,9.4-7.2c0-4.4-3.5-7.3-9.4-7.3
					C150.4,27.9,146.8,30.8,146.8,35.2z"/>
				<path class="st2" d="M184.3,23.9c3.6-1.7,6.7-1.8,10.3-1.8c1.6,0,3.2,0.1,4.6,0.5v6.8c-1.7-0.8-3.9-1.1-6-1.1
					c-3.2,0-6.3,0.8-8.9,2.2v16.9h-7.5V22.7h7.5L184.3,23.9L184.3,23.9z"/>
				<path class="st2" d="M210.5,22.8v1.1c3.5-1.7,6.9-1.9,11-1.9c6.9,0,11.9,3.2,11.9,10.1v15.4h-7.5V33.6c0-4.1-2.8-5.2-6.8-5.2
					c-3.4,0-6,0.7-8.6,2.3v16.8H203V22.8L210.5,22.8L210.5,22.8z"/>
			</g>
		</g>
	</g>
</g>
</svg>
